<svg xmlns="http://www.w3.org/2000/svg" xmlns:i="http://ns.adobe.com/AdobeIllustrator/10.0/" xmlns:xlink="http://www.w3.org/1999/xlink" viewBox="0 0 55 55"><defs><style>      .cls-1 {        fill: none;      }      .cls-2 {        fill: #050b23;        fill-rule: evenodd;      }      .cls-3 {        clip-path: url(#clippath);      }    </style><clipPath id="clippath"><rect class="cls-1" x="3.1" y="20.1" width="48.9" height="14.8"></rect></clipPath></defs><g><g id="Layer_1"><g class="cls-3"><path class="cls-2" d="M6.4,22.5h1.3l1.7,4.8,1.7-4.8h1.3l-2.4,6.8h-1.2l-2.4-6.8ZM13.2,24.3h1.2v5h-1.2v-5ZM13.8,22.3c.2,0,.4,0,.5.2.3.3.3.8,0,1.1-.3.3-.8.3-1.1,0h0c-.1-.2-.2-.4-.2-.6,0-.4.3-.8.8-.8h0ZM17.9,25.3c-.4,0-.7.1-1,.4-.5.6-.5,1.5,0,2.1.2.3.6.4.9.4s.7-.1,1-.4c.3-.3.4-.7.4-1.1,0-.4-.1-.8-.4-1-.2-.3-.6-.4-.9-.4ZM19.2,22.4h1.2v6.9h-1.2v-.5c-.2.2-.4.4-.7.5-.2,0-.5.1-.8.1-.6,0-1.2-.3-1.7-.7-.5-.5-.7-1.2-.7-1.9,0-.7.2-1.4.7-1.9.4-.5,1-.7,1.6-.7s.6,0,.8.2.5.3.7.5v-2.5ZM24.1,25.3c-.4,0-.7.1-1,.4s-.4.7-.4,1c0,.4.1.8.4,1.1.2.3.6.4.9.4s.7-.1,1-.4c.3-.3.4-.7.4-1.1,0-.4-.1-.8-.4-1-.2-.3-.6-.4-1-.4ZM25.4,22.4h1.2v6.9h-1.2v-.5c-.2.2-.4.4-.7.5-.2,0-.5.1-.8.1-.6,0-1.2-.3-1.7-.7-.5-.5-.7-1.2-.7-1.9,0-.7.2-1.4.7-1.9.4-.5,1-.7,1.6-.7s.6,0,.8.2.5.3.7.5v-2.5ZM35.7,25.4c-.3,0-.7.1-.9.4s-.4.6-.4,1c0,.4.1.8.4,1s.6.4,1,.4c.4,0,.7-.1,1-.4.5-.6.5-1.5,0-2.1-.2-.3-.6-.4-1-.4h0ZM35.7,24.2c.5,0,.9.1,1.3.3s.7.5,1,.9c.2.4.3.8.3,1.3s-.1.9-.3,1.3c-.2.4-.5.7-.9.9s-.9.3-1.3.3c-.7,0-1.3-.3-1.8-.8-1-1-1-2.7,0-3.7,0,0,0,0,0,0,.5-.4,1.1-.6,1.7-.6h0ZM39.1,24.3h3.8l-2.2,3.9h2.1v1.1h-4l2.2-3.9h-1.9v-1.1ZM47.4,26.2c0-.3-.2-.5-.5-.7-.2-.2-.5-.2-.8-.2s-.6,0-.9.3c-.2.2-.3.4-.4.6h2.7ZM48.6,27.2h-4c0,.3.2.6.5.8.3.2.6.3.9.3s.9-.2,1.2-.5l1,.5c-.2.3-.5.6-.9.8-.4.2-.8.3-1.3.3-1.4,0-2.6-1-2.6-2.4v-.2c0-.7.2-1.4.7-1.9s1.1-.8,1.8-.7c.7,0,1.4.2,1.9.7.5.5.8,1.2.7,2v.2ZM5.1,20.1h44.9c1.1,0,2,.9,2,2v7.9c0,1.1-.9,2-2,2h-16.8l-5.3,2.8,4.8-10.6h-1.3l-1.4,3.1-1.3-3.1h-1.3l1.9,4.6-1.4,3.1H5.1c-1.1,0-2-.9-2-2v-7.9c0-1.1.9-2,2-2Z"></path></g></g></g><metadata></metadata></svg>